<mxfile host="app.diagrams.net" modified="2022-11-13T14:20:32.660Z" agent="5.0 (Windows)" etag="p4UIshrilYB0rPFXRYaD" version="20.5.3" type="github">
  <diagram id="cbRGkEIISHIed5Up1x4z" name="Page-1">
    <mxGraphModel dx="782" dy="392" grid="1" gridSize="10" guides="1" tooltips="1" connect="1" arrows="1" fold="1" page="1" pageScale="1" pageWidth="827" pageHeight="1169" math="0" shadow="0">
      <root>
        <mxCell id="0" />
        <mxCell id="1" parent="0" />
        <mxCell id="GeCk1eoPQsIMOyCpoYhU-6" value="&lt;div style=&quot;font-size: 26px;&quot;&gt;&lt;font style=&quot;font-size: 26px;&quot; face=&quot;Times New Roman&quot;&gt;&amp;nbsp; Système &lt;br&gt;&lt;/font&gt;&lt;/div&gt;&lt;div style=&quot;font-size: 26px;&quot;&gt;&lt;font style=&quot;font-size: 26px;&quot; face=&quot;Times New Roman&quot;&gt;&lt;br&gt;&lt;/font&gt;&lt;/div&gt;" style="verticalAlign=top;align=left;overflow=fill;fontSize=12;fontFamily=Helvetica;html=1;fillColor=#fff2cc;strokeColor=#d6b656;" parent="1" vertex="1">
          <mxGeometry x="140" y="260" width="500" height="340" as="geometry" />
        </mxCell>
        <mxCell id="GeCk1eoPQsIMOyCpoYhU-7" value="&lt;div&gt;Admin&lt;/div&gt;" style="shape=umlActor;verticalLabelPosition=bottom;verticalAlign=top;html=1;fontFamily=Times New Roman;fontSize=17;" parent="1" vertex="1">
          <mxGeometry x="50" y="360" width="50" height="110" as="geometry" />
        </mxCell>
        <mxCell id="GeCk1eoPQsIMOyCpoYhU-12" value="Supprimer le système" style="ellipse;whiteSpace=wrap;html=1;rounded=1;fontFamily=Times New Roman;fontSize=17;fillColor=#ffe6cc;strokeColor=#d79b00;" parent="1" vertex="1">
          <mxGeometry x="180" y="430" width="190" height="120" as="geometry" />
        </mxCell>
        <mxCell id="GeCk1eoPQsIMOyCpoYhU-13" value="&lt;font style=&quot;font-size: 17px;&quot;&gt;Configurer le système&lt;/font&gt;" style="ellipse;whiteSpace=wrap;html=1;rounded=1;fontFamily=Times New Roman;fontSize=26;fillColor=#ffe6cc;strokeColor=#d79b00;" parent="1" vertex="1">
          <mxGeometry x="430" y="435" width="166" height="110" as="geometry" />
        </mxCell>
        <mxCell id="GeCk1eoPQsIMOyCpoYhU-14" value="" style="endArrow=classic;html=1;rounded=0;fontFamily=Times New Roman;fontSize=17;exitX=0.561;exitY=1;exitDx=0;exitDy=0;exitPerimeter=0;entryX=0;entryY=0;entryDx=0;entryDy=0;" parent="1" source="GeCk1eoPQsIMOyCpoYhU-11" target="GeCk1eoPQsIMOyCpoYhU-13" edge="1">
          <mxGeometry width="50" height="50" relative="1" as="geometry">
            <mxPoint x="390" y="410" as="sourcePoint" />
            <mxPoint x="440" y="360" as="targetPoint" />
          </mxGeometry>
        </mxCell>
        <mxCell id="GeCk1eoPQsIMOyCpoYhU-15" value="" style="endArrow=classic;html=1;rounded=0;fontFamily=Times New Roman;fontSize=17;exitX=0.5;exitY=1;exitDx=0;exitDy=0;entryX=1;entryY=0;entryDx=0;entryDy=0;" parent="1" source="GeCk1eoPQsIMOyCpoYhU-11" target="GeCk1eoPQsIMOyCpoYhU-12" edge="1">
          <mxGeometry width="50" height="50" relative="1" as="geometry">
            <mxPoint x="390" y="410" as="sourcePoint" />
            <mxPoint x="440" y="360" as="targetPoint" />
          </mxGeometry>
        </mxCell>
        <mxCell id="GeCk1eoPQsIMOyCpoYhU-16" value="&lt;font style=&quot;font-size: 13px;&quot;&gt;&amp;lt;&amp;lt;extends&amp;gt;&amp;gt;&lt;/font&gt;" style="text;html=1;align=center;verticalAlign=middle;resizable=0;points=[];autosize=1;strokeColor=none;fillColor=none;fontSize=17;fontFamily=Times New Roman;" parent="1" vertex="1">
          <mxGeometry x="275" y="400" width="90" height="30" as="geometry" />
        </mxCell>
        <mxCell id="GeCk1eoPQsIMOyCpoYhU-17" value="&lt;font style=&quot;font-size: 13px;&quot;&gt;&amp;lt;&amp;lt;extends&amp;gt;&amp;gt;&lt;/font&gt;" style="text;html=1;align=center;verticalAlign=middle;resizable=0;points=[];autosize=1;strokeColor=none;fillColor=none;fontSize=17;fontFamily=Times New Roman;" parent="1" vertex="1">
          <mxGeometry x="420" y="400" width="90" height="30" as="geometry" />
        </mxCell>
        <mxCell id="GeCk1eoPQsIMOyCpoYhU-19" value="" style="endArrow=classic;html=1;rounded=0;fontFamily=Times New Roman;fontSize=13;entryX=0;entryY=0.5;entryDx=0;entryDy=0;" parent="1" source="GeCk1eoPQsIMOyCpoYhU-7" target="GeCk1eoPQsIMOyCpoYhU-11" edge="1">
          <mxGeometry width="50" height="50" relative="1" as="geometry">
            <mxPoint x="390" y="410" as="sourcePoint" />
            <mxPoint x="440" y="360" as="targetPoint" />
            <Array as="points">
              <mxPoint x="220" y="415" />
              <mxPoint x="220" y="340" />
            </Array>
          </mxGeometry>
        </mxCell>
        <mxCell id="GeCk1eoPQsIMOyCpoYhU-21" value="" style="endArrow=classic;html=1;rounded=0;fontFamily=Times New Roman;fontSize=13;startArrow=none;" parent="1" source="GeCk1eoPQsIMOyCpoYhU-11" edge="1">
          <mxGeometry width="50" height="50" relative="1" as="geometry">
            <mxPoint x="390" y="410" as="sourcePoint" />
            <mxPoint x="440" y="360" as="targetPoint" />
          </mxGeometry>
        </mxCell>
        <mxCell id="GeCk1eoPQsIMOyCpoYhU-11" value="Déployer le système" style="ellipse;whiteSpace=wrap;html=1;rounded=1;fontFamily=Times New Roman;fontSize=17;fillColor=#ffe6cc;strokeColor=#d79b00;" parent="1" vertex="1">
          <mxGeometry x="290" y="280" width="180" height="120" as="geometry" />
        </mxCell>
        <mxCell id="GeCk1eoPQsIMOyCpoYhU-23" value="" style="endArrow=classic;html=1;rounded=0;fontFamily=Times New Roman;fontSize=13;" parent="1" source="GeCk1eoPQsIMOyCpoYhU-7" target="GeCk1eoPQsIMOyCpoYhU-12" edge="1">
          <mxGeometry width="50" height="50" relative="1" as="geometry">
            <mxPoint x="390" y="410" as="sourcePoint" />
            <mxPoint x="440" y="360" as="targetPoint" />
            <Array as="points">
              <mxPoint x="130" y="490" />
            </Array>
          </mxGeometry>
        </mxCell>
        <mxCell id="GeCk1eoPQsIMOyCpoYhU-24" value="" style="endArrow=classic;html=1;rounded=0;fontFamily=Times New Roman;fontSize=13;entryX=0.5;entryY=1;entryDx=0;entryDy=0;" parent="1" target="GeCk1eoPQsIMOyCpoYhU-13" edge="1">
          <mxGeometry width="50" height="50" relative="1" as="geometry">
            <mxPoint x="75" y="500" as="sourcePoint" />
            <mxPoint x="365" y="545" as="targetPoint" />
            <Array as="points">
              <mxPoint x="75" y="560" />
              <mxPoint x="513" y="560" />
            </Array>
          </mxGeometry>
        </mxCell>
      </root>
    </mxGraphModel>
  </diagram>
</mxfile>
